<svg xmlns="http://www.w3.org/2000/svg" version="1.1" xmlns:xlink="http://www.w3.org/1999/xlink" xmlns:svgjs="http://svgjs.dev/svgjs" width="1000" height="323" viewBox="0 0 1000 323"><g transform="matrix(1,0,0,1,-0.6060606060606233,-0.5038157202429829)"><svg viewBox="0 0 396 128" data-background-color="#192151" preserveAspectRatio="xMidYMid meet" height="323" width="1000" xmlns="http://www.w3.org/2000/svg" xmlns:xlink="http://www.w3.org/1999/xlink"><g id="tight-bounds" transform="matrix(1,0,0,1,0.2400000000000091,0.19965452690743746)"><svg viewBox="0 0 395.52 127.60069094618515" height="127.60069094618515" width="395.52"><g><svg viewBox="0 0 395.52 127.60069094618515" height="127.60069094618515" width="395.52"><g transform="matrix(1,0,0,1,0,95.70112430140512)"><svg viewBox="0 0 395.52 31.899566644780037" height="31.899566644780037" width="395.52"><g><svg viewBox="0 0 395.52 31.899566644780037" height="31.899566644780037" width="395.52"><g><svg viewBox="0 0 395.52 31.899566644780037" height="31.899566644780037" width="395.52"><g transform="matrix(1,0,0,1,0,0)"><svg width="395.52" viewBox="2.3399999141693115 -35.5 446.1700134277344 35.9900016784668" height="31.899566644780037" data-palette-color="#ffffff"><path d="M37.33-10.3L37.33-10.3Q37.33-8.42 36.85-6.92 36.38-5.42 35.6-4.27 34.81-3.13 33.76-2.32 32.71-1.51 31.59-1 30.47-0.49 29.31-0.24 28.15 0 27.12 0L27.12 0 2.64 0 2.64-6.35 27.12-6.35Q28.96-6.35 29.97-7.42 30.98-8.5 30.98-10.3L30.98-10.3Q30.98-11.18 30.71-11.91 30.44-12.65 29.94-13.18 29.44-13.72 28.72-14.01 28-14.31 27.12-14.31L27.12-14.31 12.52-14.31Q10.99-14.31 9.2-14.86 7.42-15.41 5.9-16.63 4.37-17.85 3.36-19.82 2.34-21.8 2.34-24.66L2.34-24.66Q2.34-27.51 3.36-29.48 4.37-31.45 5.9-32.68 7.42-33.91 9.2-34.46 10.99-35.01 12.52-35.01L12.52-35.01 34.13-35.01 34.13-28.66 12.52-28.66Q10.72-28.66 9.7-27.56 8.69-26.46 8.69-24.66L8.69-24.66Q8.69-22.83 9.7-21.77 10.72-20.7 12.52-20.7L12.52-20.7 27.12-20.7 27.17-20.7Q28.2-20.68 29.35-20.42 30.49-20.17 31.63-19.63 32.76-19.09 33.79-18.27 34.81-17.46 35.61-16.31 36.4-15.16 36.87-13.67 37.33-12.18 37.33-10.3ZM49-35.01L49 0 42.65 0 42.65-35.01 49-35.01ZM90.96-17.5L90.96-3.2Q90.96-2.51 90.72-1.93 90.47-1.34 90.05-0.92 89.62-0.49 89.03-0.24 88.45 0 87.76 0L87.76 0 64.86 0Q63.98 0 62.97-0.21 61.96-0.42 60.97-0.85 59.98-1.29 59.08-1.99 58.17-2.69 57.48-3.67 56.78-4.66 56.37-5.97 55.95-7.28 55.95-8.91L55.95-8.91 55.95-26.1Q55.95-26.98 56.16-27.99 56.37-29 56.81-29.99 57.25-30.98 57.95-31.88 58.66-32.79 59.65-33.48 60.64-34.18 61.93-34.59 63.23-35.01 64.86-35.01L64.86-35.01 90.67-35.01 90.67-28.66 64.86-28.66Q63.62-28.66 62.96-28 62.3-27.34 62.3-26.05L62.3-26.05 62.3-8.91Q62.3-7.69 62.97-7.02 63.64-6.35 64.86-6.35L64.86-6.35 84.61-6.35 84.61-14.31 67.72-14.31 67.72-20.7 87.76-20.7Q88.45-20.7 89.03-20.45 89.62-20.19 90.05-19.75 90.47-19.31 90.72-18.74 90.96-18.16 90.96-17.5L90.96-17.5ZM132.56-35.01L132.56-2.71Q132.56-2.03 132.3-1.44 132.05-0.85 131.62-0.43 131.19 0 130.61 0.24 130.02 0.49 129.36 0.49L129.36 0.49Q128.78 0.49 128.18 0.27 127.58 0.05 127.12-0.44L127.12-0.44 103.92-24.66 103.92 0 97.58 0 97.58-32.3Q97.58-33.28 98.12-34.07 98.67-34.86 99.53-35.25L99.53-35.25Q100.43-35.62 101.38-35.44 102.34-35.25 103.02-34.55L103.02-34.55 126.21-10.35 126.21-35.01 132.56-35.01ZM190.49-35.01L190.49-3.2Q190.49-2.51 190.25-1.93 190-1.34 189.56-0.92 189.12-0.49 188.54-0.24 187.95 0 187.29 0L187.29 0 172.99 0Q170.96 0 168.88-0.44 166.81-0.88 164.87-1.79 162.93-2.71 161.22-4.13 159.51-5.54 158.23-7.48 156.95-9.42 156.21-11.93 155.48-14.43 155.48-17.5L155.48-17.5 155.48-35.01 161.83-35.01 161.83-17.5Q161.83-14.82 162.57-12.96 163.32-11.11 164.47-9.86 165.61-8.62 166.98-7.91 168.35-7.2 169.58-6.86 170.81-6.52 171.75-6.43 172.69-6.35 172.99-6.35L172.99-6.35 184.14-6.35 184.14-35.01 190.49-35.01ZM232.75-23.24L232.75-20.36Q232.75-18.19 232.21-16.48 231.67-14.77 230.76-13.46 229.84-12.16 228.65-11.23 227.45-10.3 226.14-9.72 224.84-9.13 223.51-8.86 222.18-8.59 221.01-8.59L221.01-8.59 206.65-8.59 206.65-14.94 221.01-14.94Q222.23-15.04 223.21-15.44 224.2-15.84 224.91-16.53 225.62-17.21 226.01-18.18 226.4-19.14 226.4-20.36L226.4-20.36 226.4-23.24Q226.28-24.44 225.89-25.44 225.5-26.44 224.83-27.15 224.15-27.86 223.2-28.26 222.25-28.66 221.01-28.66L221.01-28.66 206.7-28.66Q205.43-28.66 204.77-28 204.11-27.34 204.11-26.1L204.11-26.1 204.11 0 197.76 0 197.76-26.1Q197.76-28.54 198.65-30.25 199.55-31.96 200.88-33.01 202.21-34.06 203.77-34.53 205.33-35.01 206.65-35.01L206.65-35.01 221.01-35.01Q223.15-35.01 224.86-34.46 226.57-33.91 227.88-33 229.18-32.08 230.1-30.88 231.02-29.69 231.61-28.38 232.21-27.08 232.48-25.74 232.75-24.41 232.75-23.24L232.75-23.24ZM285.09-35.01L285.09-28.66 271.1-28.66 271.1 0 264.75 0 264.75-28.66 250.74-28.66 250.74-35.01 285.09-35.01ZM326-20.85L326-14.16Q326-10.96 324.9-8.28 323.81-5.59 321.85-3.64 319.9-1.68 317.23-0.6 314.55 0.49 311.4 0.49L311.4 0.49 302.81 0.49Q299.66 0.49 296.97-0.6 294.29-1.68 292.34-3.64 290.38-5.59 289.27-8.28 288.16-10.96 288.16-14.16L288.16-14.16 288.16-20.85Q288.16-24.02 289.27-26.72 290.38-29.42 292.34-31.36 294.29-33.3 296.97-34.4 299.66-35.5 302.81-35.5L302.81-35.5 311.4-35.5Q314.55-35.5 317.23-34.4 319.9-33.3 321.85-31.36 323.81-29.42 324.9-26.72 326-24.02 326-20.85L326-20.85ZM319.66-14.16L319.66-20.85Q319.66-22.73 319.06-24.26 318.46-25.78 317.37-26.87 316.29-27.95 314.76-28.55 313.23-29.15 311.4-29.15L311.4-29.15 302.81-29.15Q300.95-29.15 299.43-28.55 297.9-27.95 296.8-26.87 295.71-25.78 295.11-24.26 294.51-22.73 294.51-20.85L294.51-20.85 294.51-14.16Q294.51-12.28 295.11-10.75 295.71-9.23 296.8-8.14 297.9-7.06 299.43-6.46 300.95-5.86 302.81-5.86L302.81-5.86 311.35-5.86Q313.21-5.86 314.74-6.46 316.26-7.06 317.36-8.14 318.46-9.23 319.06-10.75 319.66-12.28 319.66-14.16L319.66-14.16ZM367.21-20.36L367.21-14.65Q367.21-11.45 366.1-8.76 364.99-6.08 363.04-4.14 361.08-2.2 358.4-1.1 355.71 0 352.56 0L352.56 0 335.42 0Q334.74 0 334.15-0.24 333.57-0.49 333.14-0.92 332.71-1.34 332.47-1.93 332.23-2.51 332.23-3.2L332.23-3.2 332.23-31.81Q332.23-32.47 332.47-33.06 332.71-33.64 333.14-34.08 333.57-34.52 334.15-34.77 334.74-35.01 335.42-35.01L335.42-35.01 352.56-35.01Q355.71-35.01 358.4-33.91 361.08-32.81 363.04-30.87 364.99-28.93 366.1-26.23 367.21-23.54 367.21-20.36L367.21-20.36ZM360.86-14.65L360.86-20.36Q360.86-22.22 360.27-23.75 359.67-25.29 358.57-26.38 357.47-27.47 355.94-28.06 354.42-28.66 352.56-28.66L352.56-28.66 338.57-28.66 338.57-6.35 352.56-6.35Q354.42-6.35 355.94-6.95 357.47-7.54 358.57-8.63 359.67-9.72 360.27-11.24 360.86-12.77 360.86-14.65L360.86-14.65ZM407.79-31.81L407.79 0 401.44 0 401.44-8.59 379.12-8.59 379.12 0 372.78 0 372.78-17.5Q372.78-21.34 374.09-24.56 375.41-27.78 377.76-30.1 380.1-32.42 383.3-33.72 386.5-35.01 390.28-35.01L390.28-35.01 404.59-35.01Q405.25-35.01 405.83-34.77 406.42-34.52 406.86-34.08 407.3-33.64 407.54-33.06 407.79-32.47 407.79-31.81L407.79-31.81ZM379.12-17.5L379.12-14.94 401.44-14.94 401.44-28.66 390.28-28.66Q389.99-28.66 389.05-28.58 388.11-28.49 386.87-28.15 385.64-27.81 384.27-27.1 382.91-26.39 381.76-25.15 380.61-23.9 379.87-22.03 379.12-20.17 379.12-17.5L379.12-17.5ZM448.51-35.01L448.51-23.29Q448.51-21.12 447.96-19.41 447.41-17.7 446.5-16.39 445.6-15.09 444.39-14.16 443.18-13.23 441.89-12.63 440.6-12.04 439.26-11.77 437.93-11.5 436.76-11.5L436.76-11.5 434.2-11.5 434.2 0 427.8 0 427.8-11.5 425.26-11.5Q424.09-11.5 422.76-11.77 421.43-12.04 420.12-12.63 418.82-13.23 417.62-14.16 416.43-15.09 415.51-16.39 414.59-17.7 414.04-19.42 413.5-21.14 413.5-23.29L413.5-23.29 413.5-35.01 419.84-35.01 419.84-23.29Q419.84-22.05 420.23-21.06 420.62-20.07 421.33-19.36 422.04-18.65 423.05-18.27 424.07-17.9 425.31-17.9L425.31-17.9 436.76-17.9Q437.67-18.04 438.62-18.27 439.57-18.51 440.35-19.07 441.13-19.63 441.64-20.63 442.16-21.63 442.16-23.29L442.16-23.29 442.16-35.01 448.51-35.01Z" opacity="1" transform="matrix(1,0,0,1,0,0)" fill="#ffffff" class="undefined-text-0" data-fill-palette-color="primary" id="text-0"></path></svg></g></svg></g></svg></g></svg></g><g transform="matrix(1,0,0,1,163.80263252227616,0)"><svg viewBox="0 0 67.91473495544764 88.17040220617203" height="88.17040220617203" width="67.91473495544764"><g><svg version="1.0" xmlns="http://www.w3.org/2000/svg" xmlns:xlink="http://www.w3.org/1999/xlink" x="7.9999999999999964" y="0" viewBox="0 0 58.8799934387207 99.99998474121094" enable-background="new 0 0 58.88 100" xml:space="preserve" width="51.91473495544765" height="88.17040220617203" class="icon-icon-0" data-fill-palette-color="accent" id="icon-0"><path d="M50.642 54.731l-19.77-1.998c0-9.485-0.749-18.97-0.749-28.456 0-2.857-2.383-5.241-5.241-5.241-2.859 0-3.895 2.383-3.895 5.241 0 12.443 0 27.497 0 39.94-1.608-2.174-7.785-8.634-7.863-8.736-2.034-2.751-8.965-4.386-12.165-2.512-2.717 1.593 2.259 5.438 4.302 8.201 7.416 10.026 13.29 19.999 20.706 30.025 0.86 1.714 2.02 3.251 3.412 4.544 0.7 0.783 1.521 1.42 2.414 1.849 2.447 1.527 5.337 2.412 8.433 2.412 8.376 0 15.239-6.458 15.895-14.665 0.033-0.241 0.057-0.486 0.057-0.736l2.702-23.577C58.88 58.043 53.621 54.731 50.642 54.731z" fill="#ffffff" data-fill-palette-color="accent"></path><path d="M17.865 47.69c0-1.888 0-3.771 0-5.649C10.599 39.41 5.391 32.442 5.391 24.277c0-10.413 8.473-18.886 18.886-18.886 10.413 0 18.887 8.473 18.887 18.886 0 6.921-3.744 12.979-9.311 16.269 0.078 1.978 0.157 3.956 0.23 5.933 8.515-3.776 14.471-12.303 14.471-22.201C48.555 10.891 37.665 0 24.277 0 10.891 0 0 10.891 0 24.277 0 35.445 7.582 44.87 17.865 47.69z" fill="#ffffff" data-fill-palette-color="accent"></path></svg></g></svg></g><g><rect width="163.80263252227616" height="2.8767358403790415" y="84.29366636579299" x="231.7173674777238" fill="#ffffff" data-fill-palette-color="accent"></rect><rect width="163.80263252227616" height="2.8767358403790415" y="84.29366636579299" x="0" fill="#ffffff" data-fill-palette-color="accent"></rect><rect width="163.80263252227616" height="2.8767358403790415" y="78.5401946850349" x="231.7173674777238" fill="#ffffff" data-fill-palette-color="accent"></rect><rect width="163.80263252227616" height="2.8767358403790415" y="78.5401946850349" x="0" fill="#ffffff" data-fill-palette-color="accent"></rect></g></svg></g><defs></defs></svg><rect width="395.52" height="127.60069094618515" fill="none" stroke="none" visibility="hidden"></rect></g></svg></g></svg>