<svg xmlns="http://www.w3.org/2000/svg" version="1.1" xmlns:xlink="http://www.w3.org/1999/xlink" xmlns:svgjs="http://svgjs.dev/svgjs" width="1000" height="131" viewBox="0 0 1000 131"><g transform="matrix(1,0,0,1,-0.6060606060606233,-0.04363050412960945)"><svg viewBox="0 0 396 52" data-background-color="#192151" preserveAspectRatio="xMidYMid meet" height="131" width="1000" xmlns="http://www.w3.org/2000/svg" xmlns:xlink="http://www.w3.org/1999/xlink"><g id="tight-bounds" transform="matrix(1,0,0,1,0.2400000000000091,0.01731897873847288)"><svg viewBox="0 0 395.52 51.96536204252304" height="51.96536204252304" width="395.52"><g><svg viewBox="0 0 471.59231852357505 61.96011723440135" height="51.96536204252304" width="395.52"><g transform="matrix(1,0,0,1,0,1.090952377740308)"><svg viewBox="0 0 395.52 59.778212478920736" height="59.778212478920736" width="395.52"><g><svg viewBox="0 0 395.52 59.778212478920736" height="59.778212478920736" width="395.52"><g><svg viewBox="0 0 395.52 59.778212478920736" height="59.778212478920736" width="395.52"><g transform="matrix(1,0,0,1,0,0)"><svg width="395.52" viewBox="2.3399999141693115 -35.0099983215332 232.61000061035156 35.0099983215332" height="59.778212478920736" data-palette-color="#ffffff"><g class="undefined-text-0" data-fill-palette-color="primary" id="text-0"><path d="M37.33-10.3L37.33-10.3Q37.33-8.42 36.85-6.92 36.38-5.42 35.6-4.27 34.81-3.13 33.76-2.32 32.71-1.51 31.59-1 30.47-0.49 29.31-0.24 28.15 0 27.12 0L27.12 0 2.64 0 2.64-6.35 27.12-6.35Q28.96-6.35 29.97-7.42 30.98-8.5 30.98-10.3L30.98-10.3Q30.98-11.18 30.71-11.91 30.44-12.65 29.94-13.18 29.44-13.72 28.72-14.01 28-14.31 27.12-14.31L27.12-14.31 12.52-14.31Q10.99-14.31 9.2-14.86 7.42-15.41 5.9-16.63 4.37-17.85 3.36-19.82 2.34-21.8 2.34-24.66L2.34-24.66Q2.34-27.51 3.36-29.48 4.37-31.45 5.9-32.68 7.42-33.91 9.2-34.46 10.99-35.01 12.52-35.01L12.52-35.01 34.13-35.01 34.13-28.66 12.52-28.66Q10.72-28.66 9.7-27.56 8.69-26.46 8.69-24.66L8.69-24.66Q8.69-22.83 9.7-21.77 10.72-20.7 12.52-20.7L12.52-20.7 27.12-20.7 27.17-20.7Q28.2-20.68 29.35-20.42 30.49-20.17 31.63-19.63 32.76-19.09 33.79-18.27 34.81-17.46 35.61-16.31 36.4-15.16 36.87-13.67 37.33-12.18 37.33-10.3ZM77.49-23.24L77.49-20.36Q77.49-18.19 76.95-16.48 76.41-14.77 75.5-13.46 74.58-12.16 73.39-11.23 72.19-10.3 70.88-9.72 69.58-9.13 68.25-8.86 66.92-8.59 65.74-8.59L65.74-8.59 51.39-8.59 51.39-14.94 65.74-14.94Q66.97-15.04 67.95-15.44 68.94-15.84 69.65-16.53 70.36-17.21 70.75-18.18 71.14-19.14 71.14-20.36L71.14-20.36 71.14-23.24Q71.02-24.44 70.63-25.44 70.24-26.44 69.57-27.15 68.89-27.86 67.94-28.26 66.99-28.66 65.74-28.66L65.74-28.66 51.44-28.66Q50.17-28.66 49.51-28 48.85-27.34 48.85-26.1L48.85-26.1 48.85 0 42.5 0 42.5-26.1Q42.5-28.54 43.39-30.25 44.28-31.96 45.62-33.01 46.95-34.06 48.51-34.53 50.07-35.01 51.39-35.01L51.39-35.01 65.74-35.01Q67.89-35.01 69.6-34.46 71.31-33.91 72.62-33 73.92-32.08 74.84-30.88 75.75-29.69 76.35-28.38 76.95-27.08 77.22-25.74 77.49-24.41 77.49-23.24L77.49-23.24ZM111.69-20.7L111.69-14.31 91.65-14.31 91.65-20.7 111.69-20.7ZM114.55-6.35L114.55 0 91.65 0Q90.33 0 88.76-0.46 87.2-0.93 85.87-1.99 84.54-3.05 83.65-4.75 82.76-6.45 82.76-8.91L82.76-8.91 82.76-31.81Q82.76-32.47 83-33.06 83.25-33.64 83.67-34.08 84.1-34.52 84.69-34.77 85.27-35.01 85.96-35.01L85.96-35.01 114.55-35.01 114.55-28.66 89.11-28.66 89.11-8.91Q89.11-7.67 89.77-7.01 90.42-6.35 91.69-6.35L91.69-6.35 114.55-6.35ZM149.46-20.7L149.46-14.31 129.41-14.31 129.41-20.7 149.46-20.7ZM152.31-6.35L152.31 0 129.41 0Q128.09 0 126.53-0.46 124.97-0.93 123.64-1.99 122.31-3.05 121.42-4.75 120.52-6.45 120.52-8.91L120.52-8.91 120.52-31.81Q120.52-32.47 120.77-33.06 121.01-33.64 121.44-34.08 121.87-34.52 122.45-34.77 123.04-35.01 123.72-35.01L123.72-35.01 152.31-35.01 152.31-28.66 126.87-28.66 126.87-8.91Q126.87-7.67 127.53-7.01 128.19-6.35 129.46-6.35L129.46-6.35 152.31-6.35ZM193.37-20.36L193.37-14.65Q193.37-11.45 192.26-8.76 191.15-6.08 189.2-4.14 187.25-2.2 184.56-1.1 181.87 0 178.73 0L178.73 0 161.59 0Q160.9 0 160.32-0.24 159.73-0.49 159.3-0.92 158.88-1.34 158.63-1.93 158.39-2.51 158.39-3.2L158.39-3.2 158.39-31.81Q158.39-32.47 158.63-33.06 158.88-33.64 159.3-34.08 159.73-34.52 160.32-34.77 160.9-35.01 161.59-35.01L161.59-35.01 178.73-35.01Q181.87-35.01 184.56-33.91 187.25-32.81 189.2-30.87 191.15-28.93 192.26-26.23 193.37-23.54 193.37-20.36L193.37-20.36ZM187.03-14.65L187.03-20.36Q187.03-22.22 186.43-23.75 185.83-25.29 184.73-26.38 183.63-27.47 182.11-28.06 180.58-28.66 178.73-28.66L178.73-28.66 164.74-28.66 164.74-6.35 178.73-6.35Q180.58-6.35 182.11-6.95 183.63-7.54 184.73-8.63 185.83-9.72 186.43-11.24 187.03-12.77 187.03-14.65L187.03-14.65ZM204.89-35.01L215.59-22.51 226.28-35.01 234.95-35.01 219.88-17.46 234.85 0 226.23 0 215.59-12.4 204.99 0 196.35 0 211.29-17.46 196.3-35.01 204.89-35.01Z" fill="#ffffff" data-fill-palette-color="primary"></path></g></svg></g></svg></g></svg></g></svg></g><g transform="matrix(1,0,0,1,409.6322012891737,0)"><svg viewBox="0 0 61.96011723440135 61.96011723440135" height="61.96011723440135" width="61.96011723440135"><g><svg xmlns="http://www.w3.org/2000/svg" xmlns:xlink="http://www.w3.org/1999/xlink" version="1.1" x="0" y="0" viewBox="2.625 2.625 94.75 94.75" enable-background="new 0 0 100 100" xml:space="preserve" height="61.96011723440135" width="61.96011723440135" class="icon-icon-0" data-fill-palette-color="accent" id="icon-0"><path d="M16.5 16.5C-2 35-2 65 16.5 83.5 35 102 65 102 83.5 83.5 102 65 102 35 83.5 16.5 65-2 35-2 16.5 16.5zM62.8 47.9c-5.2 9-10.4 17.9-15.5 26.9 0 0 0 0.1-0.1 0.1-0.4 0.7-0.8 1.3-1.6 1-0.9-0.3-0.7-1.1-0.6-1.8 0.4-2.3 0.8-4.5 1.3-6.8 0.7-4 1.5-7.9 2.2-11.9 0.1-0.3 0.1-0.7 0.1-1.2-0.5 0-0.9-0.1-1.3-0.1-2.9 0-5.9 0-8.8 0-1.7 0-2.1-0.7-1.3-2.2 5.2-9 10.4-17.9 15.5-26.9 0 0 0-0.1 0.1-0.1 0.4-0.7 0.8-1.3 1.6-1 0.9 0.3 0.7 1.1 0.6 1.8-0.4 2.3-0.8 4.5-1.3 6.8-0.7 4-1.5 7.9-2.2 11.9-0.1 0.3-0.1 0.7-0.1 1.2 0.5 0 0.9 0.1 1.3 0.1 2.9 0 5.9 0 8.8 0C63.2 45.7 63.6 46.4 62.8 47.9z" fill="#ffffff" data-fill-palette-color="accent"></path></svg></g></svg></g></svg></g><defs></defs></svg><rect width="395.52" height="51.96536204252304" fill="none" stroke="none" visibility="hidden"></rect></g></svg></g></svg>